<?xml version="1.0" standalone="no"?>
<!DOCTYPE svg PUBLIC "-//W3C//DTD SVG 20010904//EN"
 "http://www.w3.org/TR/2001/REC-SVG-20010904/DTD/svg10.dtd">
<svg version="1.0" xmlns="http://www.w3.org/2000/svg"
 width="260.000000pt" height="260.000000pt" viewBox="0 0 260.000000 260.000000"
 preserveAspectRatio="xMidYMid meet">
<metadata>
Created by potrace 1.11, written by Peter Selinger 2001-2013
</metadata>
<g transform="translate(0.000000,260.000000) scale(0.100000,-0.100000)"
fill="#000000" stroke="none">
<path d="M636 2381 c-12 -14 -16 -27 -10 -43 4 -13 6 -23 4 -23 -10 0 46 -90
73 -117 37 -37 137 -94 182 -103 76 -15 152 -23 281 -30 262 -13 350 -27 422
-63 81 -41 93 -61 78 -127 -2 -11 -5 -24 -5 -28 -1 -10 -193 -7 -236 4 -16 4
-55 10 -86 14 -70 7 -76 8 -169 34 -214 58 -413 39 -462 -45 -27 -46 -26 -151
1 -207 78 -160 277 -240 535 -213 l59 6 -74 -78 c-195 -204 -360 -452 -472
-708 -46 -104 -49 -136 -22 -200 15 -36 105 -96 172 -113 79 -21 229 -29 333
-18 30 4 78 9 105 12 197 22 373 25 438 7 56 -16 93 16 80 67 -10 37 -52 44
-236 38 -94 -4 -188 -8 -207 -11 -189 -23 -319 -26 -420 -10 -101 17 -128 27
-163 59 -33 31 -31 54 18 163 80 183 219 403 349 557 57 67 191 200 280 278
196 172 277 293 278 418 0 53 -18 92 -59 130 -55 52 -165 92 -283 104 -30 3
-62 7 -70 10 -8 2 -73 7 -145 10 -156 6 -205 12 -259 32 -23 8 -52 17 -66 19
-60 12 -121 68 -140 129 -7 22 -17 46 -23 53 -15 18 -62 14 -81 -7z m427 -528
c61 -16 62 -16 46 -45 -20 -38 -15 -142 10 -182 25 -41 86 -96 105 -96 8 0 19
-6 25 -14 10 -12 5 -15 -26 -20 -108 -16 -275 13 -338 57 -115 82 -142 128
-130 222 6 52 8 54 48 69 75 28 176 31 260 9z m225 -46 c18 -1 15 -24 -4 -35
-12 -6 -26 -4 -45 7 -26 14 -29 14 -48 -3 -28 -25 -43 -83 -30 -108 16 -30 5
-31 -21 -3 -22 23 -22 28 -11 67 24 87 29 91 91 83 30 -4 61 -7 68 -8z m367
-39 c3 -3 -7 -23 -22 -45 -41 -60 -101 -125 -106 -116 -3 5 -2 28 3 52 4 24 4
57 -1 74 -5 16 -6 33 -4 37 5 8 123 6 130 -2z m-275 -50 c0 -11 -38 -10 -45 2
-3 5 0 16 7 24 11 13 15 13 26 -2 6 -8 12 -19 12 -24z m75 6 c9 -14 14 -33 10
-42 -5 -14 -11 -12 -36 16 -16 18 -29 37 -29 42 0 20 38 9 55 -16z m-194 -28
c1 -6 2 -24 3 -41 1 -23 10 -35 39 -54 42 -27 47 -45 16 -61 -26 -15 -58 5
-99 61 -39 54 -48 96 -24 114 20 14 63 2 65 -19z m237 -58 c6 -50 -79 -111
-86 -61 -2 14 3 23 16 27 11 4 25 20 32 37 15 35 34 33 38 -3z"/>
<path d="M1920 801 c-223 -72 -230 -74 -280 -67 -42 6 -53 3 -70 -14 -43 -43
-12 -90 62 -90 27 0 101 19 192 50 81 28 156 50 166 50 10 0 27 -8 39 -17 39
-32 33 -114 -17 -239 -19 -46 -19 -54 -6 -73 17 -24 65 -29 82 -8 6 6 13 23
16 37 3 14 12 56 21 93 33 139 20 216 -45 271 -38 31 -80 33 -160 7z"/>
</g>
</svg>
